<?xml version="1.0" encoding="UTF-8" standalone="no"?>
<svg id="svg2" xmlns:rdf="http://www.w3.org/1999/02/22-rdf-syntax-ns#" xmlns="http://www.w3.org/2000/svg" height="44.648mm" width="72.751mm" version="1.1" xmlns:cc="http://creativecommons.org/ns#" xmlns:dc="http://purl.org/dc/elements/1.1/" viewBox="0 0 257.77775 158.20313">
 <metadata id="metadata7">
  <rdf:RDF>
   <cc:Work rdf:about="">
    <dc:format>image/svg+xml</dc:format>
    <dc:type rdf:resource="http://purl.org/dc/dcmitype/StillImage"/>
    <dc:title/>
   </cc:Work>
  </rdf:RDF>
 </metadata>
 <g id="layer1" transform="translate(-166.2 -236.35)">
  <g id="text3340">
   <path d="m205.75 293.48h-8.7891v-13.184h8.7891q16.348 0 27.949 11.602 11.602 11.514 11.602 27.949 0 16.348-11.602 27.949-11.602 11.602-27.949 11.602-16.348 0-27.949-11.602-11.602-11.602-11.602-27.949v-83.496h13.184v83.496q0 10.898 7.7344 18.633 7.7344 7.7344 18.633 7.7344 10.898 0 18.633-7.7344 7.7344-7.7344 7.7344-18.633 0-10.898-7.7344-18.633-7.7344-7.7344-18.633-7.7344z"/>
   <path d="m294.02 346.21h8.7891v13.184h-8.7891q-16.348 0-27.949-11.514-11.602-11.602-11.602-28.037 0-16.348 11.602-27.949 11.602-11.602 27.949-11.602 16.348 0 27.949 11.602 11.602 11.602 11.602 27.949v39.551h-13.184v-39.551q0-10.898-7.7344-18.633-7.7344-7.7344-18.633-7.7344-10.898 0-18.633 7.7344-7.7344 7.7344-7.7344 18.633 0 10.898 7.7344 18.633 7.7344 7.7344 18.633 7.7344z"/>
   <path d="m384.42 359.4h-8.7891v-13.184h8.7891q10.898 0 18.633-7.7344 7.7344-7.7344 7.7344-18.633 0-10.898-7.7344-18.633-7.7344-7.7344-18.633-7.7344-10.898 0-18.633 7.7344-7.7344 7.7344-7.7344 18.633v74.707h-13.184v-74.707q0-16.348 11.602-27.949 11.602-11.602 27.949-11.602 16.348 0 27.949 11.602 11.602 11.602 11.602 27.949 0 16.436-11.602 28.037-11.602 11.514-27.949 11.514z"/>
  </g>
 </g>
</svg>
