<?xml version="1.0" encoding="UTF-8" standalone="no"?>
<svg
   xmlns:dc="http://purl.org/dc/elements/1.1/"
   xmlns:cc="http://creativecommons.org/ns#"
   xmlns:rdf="http://www.w3.org/1999/02/22-rdf-syntax-ns#"
   xmlns:svg="http://www.w3.org/2000/svg"
   xmlns="http://www.w3.org/2000/svg"
   xmlns:sodipodi="http://sodipodi.sourceforge.net/DTD/sodipodi-0.dtd"
   xmlns:inkscape="http://www.inkscape.org/namespaces/inkscape"
   id="svg2"
   version="1.1"
   viewBox="0 0 266.56022 165.29128"
   inkscape:version="0.91 r13725"
   sodipodi:docname="bap.svg">
  <defs
     id="defs14" />
  <sodipodi:namedview
     pagecolor="#ffffff"
     bordercolor="#666666"
     borderopacity="1"
     objecttolerance="10"
     gridtolerance="10"
     guidetolerance="10"
     inkscape:pageopacity="0"
     inkscape:pageshadow="2"
     inkscape:window-width="1273"
     inkscape:window-height="727"
     id="namedview12"
     showgrid="false"
     fit-margin-top="1"
     fit-margin-right="1"
     fit-margin-bottom="1"
     fit-margin-left="1"
     inkscape:zoom="1.5032036"
     inkscape:cx="196.55548"
     inkscape:cy="57.768262"
     inkscape:window-x="0"
     inkscape:window-y="0"
     inkscape:window-maximized="0"
     inkscape:current-layer="svg2">
    <inkscape:grid
       type="xygrid"
       id="grid3344"
       originx="3.5422437"
       originy="3.5458043" />
  </sodipodi:namedview>
  <metadata
     id="metadata7">
    <rdf:RDF>
      <cc:Work
         rdf:about="">
        <dc:format>image/svg+xml</dc:format>
        <dc:type
           rdf:resource="http://purl.org/dc/dcmitype/StillImage" />
        <dc:title></dc:title>
      </cc:Work>
    </rdf:RDF>
  </metadata>
  <path
     d="m 43.092297,60.672342 -13.318346,0 0,-13.184 13.318346,0 c 10.89867,0 20.215,3.86733 27.949,11.602 7.73467,7.676 11.602,16.99233 11.602,27.949 0,10.89867 -3.86733,20.214998 -11.602,27.948998 -7.73467,7.73467 -17.051,11.602 -27.949,11.602 -10.89867,0 -20.215,-3.86733 -27.948999,-11.602 C 7.4086274,107.25367 3.5412974,97.937342 3.5412974,87.039342 l 0,-83.4959999 13.1839996,0 0,83.4959999 c 0,7.26533 2.57813,13.476328 7.7344,18.632998 5.15627,5.15627 11.36727,7.7344 18.633,7.7344 7.26533,0 13.47633,-2.57813 18.633,-7.7344 5.15627,-5.15627 7.7344,-11.367268 7.7344,-18.632998 0,-7.26533 -2.57813,-13.47633 -7.7344,-18.633 -5.15627,-5.15627 -11.36727,-7.7344 -18.633,-7.7344 z"
     id="path6"
     inkscape:connector-curvature="0"
     sodipodi:nodetypes="cccscscscsccscscsccc" />
  <path
     d="m 131.36229,113.40234 13.31835,0 0,13.184 -13.31835,0 c -10.89867,0 -20.215,-3.838 -27.949,-11.514 -7.734663,-7.73467 -11.601993,-17.080328 -11.601993,-28.036998 0,-10.89867 3.86733,-20.215 11.601993,-27.949 7.73467,-7.73467 17.051,-11.602 27.949,-11.602 10.89867,0 20.215,3.86733 27.949,11.602 7.73467,7.73467 11.602,17.051 11.602,27.949 l 0,39.550998 -13.184,0 0,-39.550998 c 0,-7.26533 -2.57813,-13.47633 -7.7344,-18.633 -5.15627,-5.15627 -11.36727,-7.7344 -18.633,-7.7344 -7.26533,0 -13.47633,2.57813 -18.633,7.7344 -5.15627,5.15627 -7.7344,11.36727 -7.7344,18.633 0,7.26533 2.57813,13.476328 7.7344,18.632998 5.15627,5.15627 11.36727,7.7344 18.633,7.7344 z"
     id="path8"
     inkscape:connector-curvature="0"
     sodipodi:nodetypes="cccscscscsccscscsccc" />
  <path
     d="m 223.46831,126.59234 -13.37715,0.0588 0,-13.184 13.37715,-0.0588 c 7.26526,-0.0319 13.47633,-2.57813 18.633,-7.7344 5.15627,-5.15627 7.7344,-11.367268 7.7344,-18.632998 0,-7.26533 -2.57813,-13.47633 -7.7344,-18.633 -5.15627,-5.15627 -11.36727,-7.7344 -18.633,-7.7344 -7.26533,0 -13.47633,2.57813 -18.633,7.7344 -5.15627,5.15627 -7.7344,11.36727 -7.7344,18.633 l 0,74.706998 -13.184,0 0,-74.706998 c 0,-10.89867 3.86733,-20.215 11.602,-27.949 7.73467,-7.73467 17.051,-11.602 27.949,-11.602 10.89867,0 20.215,3.86733 27.949,11.602 7.73467,7.73467 11.602,17.051 11.602,27.949 0,10.95733 -3.86733,20.302998 -11.602,28.036998 -7.73467,7.676 -17.051,11.514 -27.949,11.514 z"
     id="path10"
     inkscape:connector-curvature="0"
     sodipodi:nodetypes="cccscscscsccscscsccc" />
</svg>
